<svg width="136" height="30" viewBox="0 0 136 30" fill="none" xmlns="http://www.w3.org/2000/svg">
<rect width="63" height="30" rx="4" fill="#F5C51C"/>
<path d="M9.17188 22V7.9082H11.75L18.1172 17.0684H18.1758V7.9082H21.1152V22H18.5566L12.1699 12.7715H12.1113V22H9.17188ZM24.0688 22V7.9082H33.4047V10.3398H27.018V13.7188H33.0434V16.0234H27.018V19.5684H33.4047V22H24.0688ZM39.1121 22L35.3816 7.9082H38.4383L40.6648 18.0059H40.7234L43.3211 7.9082H45.909L48.5066 18.0059H48.5652L50.8016 7.9082H53.8582L50.118 22H47.2371L44.6492 12.5566H44.5906L41.993 22H39.1121Z" fill="#202020"/>
<path d="M72.1719 22V7.9082H75.5801L79.584 18.0352H79.6426L83.6465 7.9082H87.0547V22H84.4277V12.4688H84.3398L80.541 22H78.6855L74.877 12.4688H74.7988V22H72.1719ZM96.3559 22.2441C92.1664 22.2441 89.559 19.4414 89.559 14.959V14.9395C89.559 10.457 92.1859 7.66406 96.3559 7.66406C100.536 7.66406 103.153 10.4668 103.153 14.9395V14.959C103.153 19.4414 100.545 22.2441 96.3559 22.2441ZM96.3559 19.7441C98.6996 19.7441 100.145 17.8789 100.145 14.959V14.9395C100.145 12 98.6703 10.1641 96.3559 10.1641C94.0512 10.1641 92.5668 11.9902 92.5668 14.9395V14.959C92.5668 17.9082 94.0414 19.7441 96.3559 19.7441ZM108.987 22L104.27 7.9082H107.532L110.755 18.9824H110.813L114.026 7.9082H117.298L112.581 22H108.987ZM119.343 22V7.9082H122.292V22H119.343ZM125.236 22V7.9082H134.572V10.3398H128.185V13.7188H134.211V16.0234H128.185V19.5684H134.572V22H125.236Z" fill="#F5C51C"/>
</svg>
